# xmcd
#
# Track frame offsets:
#	150
#	14805
#	27217
#	40772
#	54380
#	69536
#	84800
#	100331
#	117146
#	130918
#	146071
#	162345
#	179161
#	193309
#	207945
#	220553
#	235224
#	263345
#
# Disc length: 3741 seconds
#
# Revision: 1
# Processed by: cddbd v1.5.1PL0 Copyright (c) Steve Scherf et al.
# Submitted via: audiograbber 1.83.01
#
DISCID=000e9b12
DTITLE=Sabien Tiels - Het beste van
DYEAR=2000
DGENRE=Vlaams
TTITLE0=Hou je morgen nog van mij
TTITLE1=Trein
TTITLE2=Nooit meer alleen
TTITLE3=Ik weet niet hoe
TTITLE4=Moeder van mijn moeder
TTITLE5=En toen
TTITLE6=Van voor af aan
TTITLE7=Hier hoor ik niet thuis
TTITLE8=Trein 2
TTITLE9=Ik wil alleen maar zijn
TTITLE10=Leun op mij
TTITLE11=Breek het ijs
TTITLE12=Alles
TTITLE13=Ik ben ik
TTITLE14=Neem mij
TTITLE15=I can't live without your love
TTITLE16=Ann Christy medley
TTITLE17=Voor Jou
EXTD=
EXTT0=
EXTT1=
EXTT2=
EXTT3=
EXTT4=
EXTT5=
EXTT6=
EXTT7=
EXTT8=
EXTT9=
EXTT10=
EXTT11=
EXTT12=
EXTT13=
EXTT14=
EXTT15=
EXTT16=
EXTT17=
PLAYORDER=
